<?xml version="1.0" encoding="UTF-8"?>
<svg xmlns="http://www.w3.org/2000/svg" xmlns:xlink="http://www.w3.org/1999/xlink"   viewBox="0 0 192 192" version="1.1">
<g>
<path style=" stroke:none;fill-rule:nonzero;fill-opacity:1;" fill="#000000" d="M 86.621094 66.765625 C 76.320312 66.765625 67.953125 75.132812 67.953125 85.433594 C 67.953125 95.734375 76.320312 104.101562 86.621094 104.101562 C 96.921875 104.101562 105.289062 95.734375 105.289062 85.433594 C 105.289062 75.132812 96.921875 66.765625 86.621094 66.765625 Z M 86.621094 102.851562 C 77.019531 102.851562 69.203125 95.035156 69.203125 85.433594 C 69.203125 75.832031 77.019531 68.015625 86.621094 68.015625 C 96.222656 68.015625 104.039062 75.832031 104.039062 85.433594 C 104.039062 95.035156 96.222656 102.851562 86.621094 102.851562 Z M 90.703125 74.960938 L 87.601562 74.960938 C 83.648438 74.929688 83.140625 77.367188 83.140625 80.023438 L 83.140625 81.953125 L 81.398438 81.953125 C 81.050781 81.921875 80.78125 82.191406 80.8125 82.539062 L 80.8125 86.035156 C 80.765625 86.382812 81.050781 86.652344 81.398438 86.621094 L 83.140625 86.621094 L 83.140625 95.355469 C 83.109375 95.703125 83.378906 95.972656 83.726562 95.941406 L 87.285156 95.941406 C 87.632812 95.972656 87.902344 95.703125 87.792969 95.355469 L 87.792969 86.621094 L 90.703125 86.621094 C 91.050781 86.652344 91.320312 86.382812 91.289062 86.035156 L 91.289062 82.539062 C 91.335938 82.191406 91.050781 81.921875 90.703125 81.953125 L 87.792969 81.953125 L 87.792969 80.210938 C 87.902344 79.46875 87.902344 79.59375 88.601562 79.625 L 90.691406 79.625 C 90.847656 79.59375 91.023438 79.609375 91.148438 79.5 C 91.273438 79.390625 91.339844 79.214844 91.289062 79.058594 L 91.289062 75.546875 C 91.320312 75.199219 91.035156 74.914062 90.703125 74.960938 Z M 90.070312 78.378906 L 88.613281 78.316406 C 86.808594 78.316406 86.652344 79.296875 86.652344 80.292969 L 86.652344 82.492188 C 86.652344 82.648438 86.714844 82.808594 86.84375 82.933594 C 86.953125 83.042969 87.113281 83.125 87.285156 83.125 L 90.132812 83.125 L 90.132812 85.371094 L 87.285156 85.371094 C 86.9375 85.371094 86.667969 85.65625 86.667969 85.988281 L 86.667969 94.722656 L 84.3125 94.722656 L 84.3125 86.003906 C 84.3125 85.65625 84.074219 85.386719 83.726562 85.386719 L 81.96875 85.386719 L 81.96875 83.140625 L 83.726562 83.140625 C 83.882812 83.140625 84.042969 83.078125 84.167969 82.949219 C 84.292969 82.824219 84.308594 82.679688 84.308594 82.507812 L 84.308594 80.007812 C 84.308594 77.398438 84.832031 76.164062 87.597656 76.164062 L 90.082031 76.164062 L 90.066406 78.378906 Z M 90.070312 78.378906 "/>
</g>
</svg>
