<?xml version="1.0" encoding="UTF-8"?>
<svg width="20" height="20" xmlns="http://www.w3.org/2000/svg" xmlns:xlink="http://www.w3.org/1999/xlink"   viewBox="0 0 192 192" version="1.1">
<g>
<path style=" stroke:none;fill-rule:nonzero;fill-opacity:1;" fill="#ffffff" d="M 85.800781 8.175781 C 69.074219 11.476562 54.527344 22.726562 47.101562 37.949219 C 41.101562 50.398438 40.050781 65.175781 44.25 78.300781 C 45.226562 81.449219 61.875 115.652344 89.398438 171.152344 L 96 184.425781 L 109.949219 156.226562 C 117.597656 140.703125 129 117.601562 135.222656 104.925781 C 149.097656 76.800781 150.222656 73.574219 150.222656 61.875 C 150.148438 55.125 149.621094 51.074219 147.824219 45.375 C 141.824219 26.175781 125.175781 11.550781 105.597656 8.101562 C 100.574219 7.277344 90.371094 7.277344 85.796875 8.175781 Z M 105.675781 34.351562 C 117.75 40.125 122.476562 54.902344 115.875 66.375 C 114.148438 69.375 109.5 73.875 106.648438 75.375 C 100.125 78.75 91.421875 78.601562 84.972656 75.148438 C 81.972656 73.5 77.699219 69.148438 76.046875 66.222656 C 69.972656 55.046875 74.398438 40.496094 85.570312 34.871094 C 89.546875 32.847656 91.421875 32.394531 96.820312 32.546875 C 101.546875 32.621094 102.144531 32.773438 105.671875 34.347656 Z M 105.675781 34.351562 "/>
</g>
</svg>
