<?xml version="1.0" encoding="UTF-8"?>
<svg xmlns="http://www.w3.org/2000/svg" xmlns:xlink="http://www.w3.org/1999/xlink"   viewBox="0 0 192 192" version="1.1">
<g>
<path style=" stroke:none;fill-rule:nonzero;fill-opacity:1;" fill="#000000" d="M 85.085938 56.3125 C 79.234375 57.15625 74.203125 59.238281 69.390625 62.78125 C 67.675781 64.074219 64.101562 67.675781 62.808594 69.390625 C 59.097656 74.367188 56.957031 79.769531 56.253906 85.757812 C 56 87.867188 56.140625 92.875 56.507812 94.8125 C 57.15625 98.160156 58.054688 100.886719 59.515625 103.867188 C 61.371094 107.578125 63.285156 110.195312 66.320312 113.121094 C 71.214844 117.875 77.09375 120.882812 83.8125 122.121094 C 85.921875 122.515625 90.476562 122.65625 92.757812 122.402344 C 100.210938 121.585938 106.847656 118.464844 112.332031 113.175781 C 116.605469 109.042969 119.503906 104.316406 121.21875 98.746094 C 122.289062 95.230469 122.625 92.417969 122.511719 88.3125 C 122.371094 83.195312 121.359375 79.117188 118.996094 74.503906 C 117.222656 71.015625 115.253906 68.371094 112.332031 65.53125 C 107.464844 60.777344 101.699219 57.824219 94.839844 56.53125 C 92.871094 56.136719 87.105469 56.023438 85.082031 56.304688 Z M 94.058594 59.265625 C 103.675781 60.785156 111.777344 66.550781 116.222656 75.042969 C 118.386719 79.148438 119.484375 83.339844 119.683594 88.175781 C 120.386719 106.007812 106.042969 120.324219 88.210938 119.648438 C 84.527344 119.480469 81.265625 118.832031 78.171875 117.625 C 67.992188 113.601562 61.042969 104.914062 59.273438 93.945312 C 58.9375 91.863281 58.9375 86.828125 59.273438 84.691406 C 60.988281 73.722656 67.992188 64.949219 78.230469 60.953125 C 80.707031 59.96875 83.574219 59.320312 86.722656 58.984375 C 87.902344 58.898438 92.714844 59.070312 94.0625 59.265625 Z M 94.058594 59.265625 "/>
<path style=" stroke:none;fill-rule:nonzero;fill-opacity:1;" fill="#000000" d="M 73.609375 70.742188 C 72.316406 71.21875 71.050781 72.597656 70.683594 73.863281 C 70.570312 74.285156 70.542969 78.757812 70.570312 89.613281 L 70.625 104.800781 L 70.960938 105.476562 C 71.410156 106.347656 72.339844 107.277344 73.210938 107.726562 L 73.886719 108.0625 L 104.824219 108.0625 L 105.5 107.726562 C 106.371094 107.277344 107.300781 106.347656 107.75 105.476562 L 108.085938 104.800781 L 108.085938 73.863281 L 107.75 73.1875 C 107.300781 72.316406 106.371094 71.386719 105.5 70.9375 L 104.824219 70.601562 L 89.496094 70.574219 C 76.671875 70.546875 74.054688 70.574219 73.605469 70.742188 Z M 104.519531 73.554688 C 105.25 73.863281 105.308594 74.285156 105.277344 78.449219 L 105.222656 82.050781 L 73.441406 82.050781 L 73.386719 78.449219 C 73.332031 74.34375 73.414062 73.863281 74.117188 73.582031 C 74.792969 73.273438 103.816406 73.246094 104.519531 73.554688 Z M 82.273438 85.03125 C 82.273438 85.085938 82.019531 85.425781 81.683594 85.761719 C 79.546875 88.179688 78.757812 91.472656 79.519531 94.566406 C 80.617188 98.953125 84.890625 102.328125 89.335938 102.328125 C 93.890625 102.328125 98.195312 98.8125 99.234375 94.199219 C 99.460938 93.214844 99.460938 91.105469 99.234375 90.175781 C 98.839844 88.542969 97.6875 86.40625 96.757812 85.535156 C 96.5625 85.339844 96.390625 85.140625 96.390625 85.058594 C 96.390625 84.972656 98.386719 84.945312 100.804688 84.972656 L 105.21875 85.027344 L 105.273438 94.421875 C 105.300781 101.003906 105.273438 103.984375 105.160156 104.351562 C 104.851562 105.363281 105.75 105.308594 89.355469 105.308594 C 78.78125 105.308594 74.535156 105.253906 74.195312 105.140625 C 73.324219 104.832031 73.351562 105.027344 73.351562 94.59375 C 73.351562 89.390625 73.40625 85.085938 73.464844 85.058594 C 73.578125 84.917969 82.269531 84.917969 82.269531 85.03125 Z M 91.609375 85.3125 C 94.5625 86.183594 96.53125 88.914062 96.53125 92.203125 C 96.53125 94.226562 95.914062 95.886719 94.675781 97.179688 C 93.183594 98.753906 91.636719 99.402344 89.332031 99.402344 C 87.027344 99.402344 85.480469 98.753906 83.988281 97.179688 C 82.75 95.859375 82.132812 94.226562 82.132812 92.257812 C 82.132812 89.023438 84.015625 86.296875 86.886719 85.367188 C 87.957031 85 90.515625 84.972656 91.613281 85.3125 Z M 91.609375 85.3125 "/>
<path style=" stroke:none;fill-rule:nonzero;fill-opacity:1;" fill="#000000" d="M 97.121094 76.675781 C 96.558594 77.152344 96.445312 77.714844 96.726562 78.335938 C 97.0625 79.039062 97.429688 79.152344 99.566406 79.152344 L 101.480469 79.152344 L 101.902344 78.730469 C 102.378906 78.253906 102.4375 77.660156 102.128906 77.042969 C 101.792969 76.425781 101.371094 76.3125 99.371094 76.3125 C 97.628906 76.3125 97.542969 76.339844 97.121094 76.679688 Z M 97.121094 76.675781 "/>
</g>
</svg>
