<?xml version="1.0" encoding="UTF-8"?>
<svg xmlns="http://www.w3.org/2000/svg" xmlns:xlink="http://www.w3.org/1999/xlink"   viewBox="0 0 192 192" version="1.1">
<defs>
<clipPath >
  <path d="M 83 82 L 100 82 L 100 98.863281 L 83 98.863281 Z M 83 82 "/>
</clipPath>
</defs>
<g>
<g clip-path="url(#clip1)" clip-rule="nonzero">
<path style=" stroke:none;fill-rule:nonzero;fill-opacity:1;" fill="#000000" d="M 91.507812 82.445312 C 87.164062 82.445312 83.632812 85.976562 83.632812 90.320312 C 83.632812 94.664062 87.164062 98.195312 91.507812 98.195312 C 95.851562 98.195312 99.382812 94.664062 99.382812 90.320312 C 99.382812 85.976562 95.851562 82.445312 91.507812 82.445312 Z M 91.507812 97.667969 C 87.457031 97.667969 84.160156 94.371094 84.160156 90.320312 C 84.160156 86.269531 87.457031 82.972656 91.507812 82.972656 C 95.558594 82.972656 98.855469 86.269531 98.855469 90.320312 C 98.855469 94.371094 95.558594 97.667969 91.507812 97.667969 Z M 95.824219 87.882812 C 95.878906 87.78125 95.925781 87.675781 95.957031 87.570312 C 95.992188 87.464844 95.957031 87.351562 95.871094 87.285156 C 95.785156 87.21875 95.664062 87.210938 95.570312 87.265625 C 95.316406 87.414062 95.050781 87.527344 94.761719 87.597656 C 94.421875 87.289062 93.96875 87.109375 93.5 87.109375 C 92.464844 87.109375 91.625 87.949219 91.625 88.984375 C 91.625 89.011719 91.625 89.039062 91.625 89.066406 C 90.53125 88.933594 89.515625 88.371094 88.808594 87.503906 C 88.753906 87.4375 88.667969 87.402344 88.589844 87.410156 C 88.503906 87.417969 88.429688 87.464844 88.382812 87.542969 C 88.214844 87.828125 88.128906 88.15625 88.128906 88.484375 C 88.128906 88.796875 88.210938 89.097656 88.347656 89.371094 C 88.308594 89.378906 88.273438 89.390625 88.242188 89.410156 C 88.160156 89.457031 88.109375 89.550781 88.109375 89.644531 C 88.109375 90.207031 88.355469 90.710938 88.757812 91.058594 C 88.75 91.066406 88.746094 91.070312 88.738281 91.078125 C 88.679688 91.144531 88.65625 91.246094 88.683594 91.332031 C 88.855469 91.867188 89.257812 92.285156 89.757812 92.492188 C 89.242188 92.746094 88.648438 92.847656 88.082031 92.777344 C 87.960938 92.765625 87.847656 92.832031 87.800781 92.949219 C 87.761719 93.0625 87.800781 93.191406 87.90625 93.257812 C 88.6875 93.757812 89.589844 94.023438 90.515625 94.023438 C 93.550781 94.023438 95.367188 91.5625 95.367188 89.171875 C 95.367188 89.144531 95.367188 89.117188 95.367188 89.089844 C 95.660156 88.863281 95.914062 88.589844 96.121094 88.277344 C 96.1875 88.183594 96.179688 88.050781 96.101562 87.964844 C 96.046875 87.863281 95.929688 87.839844 95.820312 87.878906 Z M 94.96875 88.742188 C 94.894531 88.796875 94.855469 88.875 94.863281 88.96875 C 94.863281 89.035156 94.871094 89.101562 94.871094 89.164062 C 94.871094 91.292969 93.257812 93.488281 90.546875 93.488281 C 90.058594 93.488281 89.585938 93.40625 89.132812 93.246094 C 89.671875 93.144531 90.179688 92.914062 90.628906 92.566406 C 90.714844 92.5 90.75 92.378906 90.714844 92.273438 C 90.679688 92.167969 90.582031 92.09375 90.46875 92.09375 C 90.027344 92.085938 89.632812 91.867188 89.394531 91.527344 C 89.519531 91.519531 89.640625 91.5 89.761719 91.46875 C 89.882812 91.433594 89.960938 91.328125 89.957031 91.207031 C 89.957031 91.085938 89.863281 90.980469 89.742188 90.960938 C 89.25 90.859375 88.859375 90.5 88.722656 90.027344 C 88.855469 90.0625 88.988281 90.082031 89.125 90.082031 C 89.238281 90.082031 89.34375 90.007812 89.386719 89.902344 C 89.421875 89.789062 89.378906 89.667969 89.28125 89.601562 C 88.90625 89.347656 88.679688 88.933594 88.679688 88.480469 C 88.679688 88.375 88.691406 88.261719 88.71875 88.160156 C 89.566406 89.035156 90.722656 89.5625 91.941406 89.621094 C 92.027344 89.621094 92.101562 89.585938 92.15625 89.527344 C 92.210938 89.46875 92.230469 89.378906 92.210938 89.300781 C 92.191406 89.199219 92.175781 89.09375 92.175781 88.992188 C 92.175781 88.25 92.78125 87.644531 93.523438 87.644531 C 93.898438 87.644531 94.257812 87.796875 94.511719 88.070312 C 94.570312 88.136719 94.664062 88.164062 94.753906 88.152344 C 94.835938 88.140625 94.914062 88.117188 94.996094 88.097656 C 94.960938 88.125 94.921875 88.152344 94.882812 88.171875 C 94.777344 88.230469 94.730469 88.367188 94.769531 88.480469 C 94.808594 88.601562 94.929688 88.675781 95.050781 88.652344 C 95.085938 88.652344 95.109375 88.644531 95.136719 88.640625 C 95.082031 88.675781 95.03125 88.714844 94.984375 88.746094 Z M 94.96875 88.742188 "/>
</g>
</g>
</svg>
